<svg id="Layer_1" data-name="Layer 1" xmlns="http://www.w3.org/2000/svg" viewBox="0 0 639.3503 188.2485"><defs><style>.cls-1{fill:#c49a6c;}</style></defs><title>main</title><path class="cls-1" d="M307.3489,389.3449q-11.2884-4.2729-19.1568-15.48-7.8684-11.2-7.8673-20.2679,0-23.26,48.7468-36.09,27.8769-7.3515,61.0619-7.3552a281.7259,281.7259,0,0,1,62.2591,6.8418l4.1056-5.6437a14.092,14.092,0,0,1,8.5518-2.9082l-6.4593,10.0923q21.5344,5.2663,32.8159,11.0373,21.7041,10.8722,21.7063,26.492a30.1419,30.1419,0,0,1-2.9208,12.9915A40.9977,40.9977,0,0,1,502.717,380.01a61.7826,61.7826,0,0,1-11.6847,9.2544,133.9913,133.9913,0,0,1-13.9187,7.7258,149.1032,149.1032,0,0,1-15.9466,6.3372q-9.1642,3.11-15.8111,5.3684-6.6506,2.2615-15.3244,5.2061-8.6743,2.9469-13.3785,4.5409a8.5888,8.5888,0,0,1-2.7876.6846c-.6571,0-.983-.1712-.983-.5135q0-1.13,8.98-4.34,8.979-3.2081,21.3052-7.5368,12.3232-4.3288,16.5992-6.2137a95.5112,95.5112,0,0,0,25.9-17.11q11.7093-10.7784,11.7108-21.9035,0-9.7492-12.3635-19.0773-12.3623-9.3228-31.5947-15.8282-4.341,6.7777-12.7422,19.8943-8.403,13.1158-13.6114,21.5717-5.2116,8.4588-12.7265,20.0743-7.5168,11.6178-14.0066,21.35-.8259,1.4043-3.1381,4.901-3.88,6.0546-6.2777,9.8036-2.401,3.7527-7.87,11.3767t-9.6562,12.71q-4.1847,5.0833-10.4227,12.4706a125.97,125.97,0,0,1-11.4518,12.088q-5.2117,4.7016-11.5344,9.92a48.3442,48.3442,0,0,1-11.8768,7.5264,58.0134,58.0134,0,0,1-11.3662,3.42,21.2655,21.2655,0,0,1-11.1952-.7694,27.1114,27.1114,0,0,1-10.1666-6.6707c-.1146-.1146-.032-.2857.2515-.5119a7.0935,7.0935,0,0,1,1.2666-.771q.846-.4285,1.8626-.8543a11.6922,11.6922,0,0,1,2.3679-.6846,13.602,13.602,0,0,1,2.5361-.256,20.2776,20.2776,0,0,0,8.0339,5.9012,14.0188,14.0188,0,0,0,8.627.5119,33.4188,33.4188,0,0,0,8.5415-3.5913,42.2862,42.2862,0,0,0,8.71-7.0977q4.4817-4.6191,8.2877-9.1517,3.804-4.5341,7.9535-10.637,4.1447-6.1035,7.234-10.6489,3.0875-4.543,6.6572-9.796,3.5686-5.2509,5.2091-7.6664L447.0905,324.316q-31.3-9.372-68.0748-9.3749-31.4733,0-57.2993,7.0129-12.3144,3.25-19.8408,11.2041-7.5279,7.952-7.5256,20.2678,0,6.6706,3.9336,17.8732Q302.2172,382.504,307.3489,389.3449Z" transform="translate(-280.3248 -305.8758)"/><path class="cls-1" d="M445.0389,427.4875q7.8649-5.3,13.854-6.33,10.603-1.88,10.7761,4.9605.1686,3.9381-10.5194,10.9466-10.6913,7.0166-15.1369,7.0129l1.1973-.6846-.6846.1711q14.8806-6.6705,19.8407-15.5648,1.7079-5.3-3.42-5.3013a12.5833,12.5833,0,0,0-8.3815,3.42,35.2583,35.2583,0,0,0-8.6374,11.0329q-3.5084,6.7577-2.8226,12.0583.6821,5.4763,4.1055,7.6961,3.4191,2.2213,8.3807.3423,7.0111-2.7325,18.6434-16.9326.5134-.5135,1.7108.1712-9.5807,13.1717-17.2756,17.7883a27.0026,27.0026,0,0,1-7.5256,2.993,37.32,37.32,0,0,1-9.0654,1.1118,14.0608,14.0608,0,0,1-8.1247-2.3947,9.9279,9.9279,0,0,1-4.19-7.1841,11.4938,11.4938,0,0,1,.855-7.1841Q432.8924,435.1865,445.0389,427.4875Z" transform="translate(-280.3248 -305.8758)"/><path class="cls-1" d="M488.8244,430.37a39.2235,39.2235,0,0,1-9.0438,1.8411q-7.4922,10.2426-9.6078,10.2411c-.1094,0-.163-.0268-.163-.0849l7.4215-10.0148q-6.1572-1.3731-3.25-7.5622a15.1753,15.1753,0,0,1,7.6574-7.3924l2.8806-.6876q3.7606.5135,3.7632,2.9141.0033.6853-6.1683,9.1293a12.4945,12.4945,0,0,0,4.2863.512q1.1955,0,7.9536-2.1715,6.7554-2.1744,9.8348-2.1729,2.7347,0,2.737,1.3752,0,2.583-2.5175,6.1959a55.0419,55.0419,0,0,1-5.5589,6.7644,41.243,41.243,0,0,0-5.6072,7.4058,15.67,15.67,0,0,0-2.5651,8.0191q0,3.4245,2.6507,3.8487a6.8078,6.8078,0,0,0,5.2173-1.4541q3.7595-3.0784,14.0251-15.7359a2.2769,2.2769,0,0,1,1.8812-.8543h.1712q-3.2505,4.7908-5.3021,7.5249a82.3927,82.3927,0,0,1-5.5589,6.5,24.5028,24.5028,0,0,1-7.27,5.5589,17.6851,17.6851,0,0,1-7.6968,1.7963,15.8529,15.8529,0,0,1-5.73-1.0894q-2.8218-1.0962-2.8218-3.2773a15.8227,15.8227,0,0,1,2.44-7.894,110.5634,110.5634,0,0,1,6.4994-9.7127q4.0564-5.5076,5.3721-7.3032a16.9855,16.9855,0,0,0,.227-2.2622q0-1.13-1.54-1.13Q493.0978,429.1975,488.8244,430.37Zm-3.7625-9.5535a1.7354,1.7354,0,0,0-.6846-2.0538,1.6594,1.6594,0,0,0-1.8813-.17q-2.3976,1.3707-2.3946,5.13,0,3.4246.6846,4.1048Q484.5455,422.5306,485.0619,420.8168Z" transform="translate(-280.3248 -305.8758)"/><path class="cls-1" d="M566.3068,359.4119a16.9456,16.9456,0,0,1,4.1911-2.0523,22.221,22.221,0,0,1,4.8742-1.1118,5.5539,5.5539,0,0,1,4.02.9406,4.0092,4.0092,0,0,1,1.4526,3.7639q-.5112,5.6438-6.6706,15.2225a183.045,183.045,0,0,1-12.8278,17.6172q-7.5279,9.2358-12.7429,14.88-5.2185,5.6436-14.9658,15.7359a5.5734,5.5734,0,0,1-1.5389.8558c-.7992.3408-1.2561.4-1.3685.17q27.7095-31.4667,38.3137-47.5487a27.3664,27.3664,0,0,1,1.71-2.6507q1.3662-1.9645,2.0524-3.0793c.4539-.74,1.0269-1.71,1.71-2.9082a22.8767,22.8767,0,0,0,1.6253-3.42,13.5073,13.5073,0,0,0,.7694-3.3353,4.715,4.715,0,0,0-1.1117-3.9337q-1.4556-1.7077-3.8488-.3423-4.6168,2.5652-9.5773,9.5788-24.2894,34.724-34.209,59.351-6.1571,15.5649-5.6444,24.459,0,4.2774,2.9082,5.3877a9.4326,9.4326,0,0,0,6.5-.0863,20.1084,20.1084,0,0,0,6.4994-3.5913,31.0266,31.0266,0,0,0,4.0192-3.6776q1.7961-1.9647,4.1911-5.0454,2.3932-3.0786,3.249-4.1048a1.8726,1.8726,0,0,1,.6846-.3423,2.8331,2.8331,0,0,1,.8558-.1712l.512-.1711q-7.6953,11.29-14.5379,16.0782a42.1677,42.1677,0,0,1-8.1247,4.4471,28.1666,28.1666,0,0,1-8.2951,2.0524,8.0177,8.0177,0,0,1-6.8418-2.5658q-2.7381-2.9112-2.9082-9.0654a27.862,27.862,0,0,1,.5135-5.4725,86.549,86.549,0,0,1,3.4209-13.5124,119.5848,119.5848,0,0,1,12.0583-25.3148,306.2384,306.2384,0,0,1,19.2425-26.8536Q557.9231,365.4009,566.3068,359.4119Z" transform="translate(-280.3248 -305.8758)"/><path class="cls-1" d="M562.8837,427.4875q7.865-5.3,13.8547-6.33,10.602-1.88,10.7754,4.9605.1674,3.9381-10.5194,10.9466-10.6914,7.0166-15.1377,7.0129l1.1981-.6846-.6846.1711q14.8817-6.6705,19.8407-15.5648,1.7079-5.3-3.42-5.3013a12.5814,12.5814,0,0,0-8.3807,3.42,35.2372,35.2372,0,0,0-8.6382,11.0329q-3.5073,6.7577-2.8219,12.0583.681,5.4763,4.1048,7.6961,3.42,2.2213,8.3807.3423,7.0122-2.7325,18.6441-16.9326.5135-.5135,1.71.1712-9.5817,13.1717-17.2749,17.7883a27.0146,27.0146,0,0,1-7.5264,2.993,37.3146,37.3146,0,0,1-9.0653,1.1118,14.0606,14.0606,0,0,1-8.1247-2.3947,9.925,9.925,0,0,1-4.19-7.1841,11.4932,11.4932,0,0,1,.8543-7.1841Q550.736,435.1865,562.8837,427.4875Z" transform="translate(-280.3248 -305.8758)"/><path class="cls-1" d="M833.2993,308.6128q.681-1.5382,4.3608-1.9676,3.6768-.4242,4.02-.7694-5.3043,7.356-9.0653,13.3412,11.29,2.9112,20.5253,6.0723a150.5506,150.5506,0,0,1,18.9,8.0384,76.4213,76.4213,0,0,1,16.1631,10.6058,47.369,47.369,0,0,1,10.6905,13.7684,37.19,37.19,0,0,1,4.1911,17.446q0,44.8146-61.9184,83.4692a197.0567,197.0567,0,0,1-45.24,20.5238,161.9933,161.9933,0,0,1-48.32,7.5264q-22.7488,0-32.155-8.8941-4.791,4.7863-15.5648,9.75-10.7761,4.9584-18.6442,4.9591-9.5817,0-13.8554-7.6961c0-.1146.1414-.2858.4286-.5135a8.3554,8.3554,0,0,1,1.1966-.7694c.5135-.2858,1.082-.5715,1.71-.8558a10.7145,10.7145,0,0,1,2.0531-.6831,9.5013,9.5013,0,0,1,2.1387-.2575h.8543q4.6189,7.0122,11.8024,7.0129,10.2625,0,24.4589-14.88a19.5264,19.5264,0,0,1-3.5913-11.46q0-5.8178,4.02-14.197,4.0161-8.3786,10.0059-8.3807c.2262,0,.3408.06.3408.1711q-6.8425,8.2112-6.8418,17.4461a21.5867,21.5867,0,0,0,2.3947,9.75q8.5527-10.0951,11.46-13.6836,15.7344-19.668,42.4914-58.4744,26.7538-38.8047,31.9972-46.4145l15.9295-23.0957q-12.3122-4.2573-31.2025-7.1514a281.644,281.644,0,0,0-40.4361-3.0659,242.1036,242.1036,0,0,0-40.1785,2.8218q-18.6367,2.9961-30.9451,11.9735-12.311,8.979-12.3106,23.0049,0,16.42,13,36.2613-9.5795-3.9336-18.13-13.94-8.5548-10.0061-8.5533-20.2694a23.1624,23.1624,0,0,1,5.8163-15.0513,47.0353,47.0353,0,0,1,14.9672-11.716,140.0742,140.0742,0,0,1,17.7021-7.6976,136.5111,136.5111,0,0,1,16.5917-4.7031,267.1567,267.1567,0,0,1,53.365-4.9605,316.4517,316.4517,0,0,1,66.0217,6.8418Zm-82.1,174.6344q1.7079.1674,5.4725.1711,31.815,0,65.6809-17.0947a144.3918,144.3918,0,0,0,45.7537-36.6647q19.07-22.99,19.0713-46.0648,0-17.9492-13.9931-32.48-13.482-13.6718-45.73-23.4172L816.593,343.9111q-34.6591,55.026-60.99,91.0209a286.9569,286.9569,0,0,1-33.4811,37.5606q4.2729,4.7775,12.4006,7.5949A57.78,57.78,0,0,0,751.1994,483.2472Z" transform="translate(-280.3248 -305.8758)"/><path class="cls-1" d="M919.6752,430.5653q0,10.0953-10.3483,19.67-10.35,9.5817-20.9525,9.5788a12.0792,12.0792,0,0,1-7.7824-2.3947,8.4448,8.4448,0,0,1-2.993-7.013q0-10.0885,10.8617-19.67,10.8588-9.5773,20.9525-9.5788a10.8657,10.8657,0,0,1,7.44,2.481A8.7384,8.7384,0,0,1,919.6752,430.5653Zm-28.9061,17.446q0,8.0414,5.474,8.04,5.6437,0,11.972-9.1516,6.3269-9.1466,6.33-15.992a9.2284,9.2284,0,0,0-1.8827-5.73,6.2726,6.2726,0,0,0-5.3014-2.4795q-4.9628,0-10.7754,8.4655Q890.7677,439.6314,890.7691,448.0113Z" transform="translate(-280.3248 -305.8758)"/><polygon class="cls-1" points="367.524 93.377 402.429 93.524 422.525 115.007 404.805 88.376 367.531 88.376 367.516 88.376 330.242 88.376 312.522 115.007 332.618 93.524 367.524 93.377"/><path class="cls-1" d="M675.6259,422.83,661.8982,402.04l6.93,20.1955H626.8688l6.93-20.1955L620.0709,422.83l-27.9834-.33,55.6479,60.7954.1022.1117.0108.0117.0108-.0117.36-.3932,55.39-60.5139Zm-27.7854,2.7725h.0158l21.3348-.0666-21.3427,56.3369-21.3426-56.3369Zm-43.8072.3954,15.84-.363,27.8917,56.4591-.3011.7948Zm43.8151,57.3951-.3388-.4437.3309-.67.0079-.016.0079.016.3309.67Zm.0838-1.299,27.8917-56.4591,15.84.363-43.43,56.8909Z" transform="translate(-280.3248 -305.8758)"/></svg>